<svg xmlns="http://www.w3.org/2000/svg" viewBox="0 0 64 64" role="img" aria-labelledby="title desc">
  <title id="title">Animad Consulting</title><desc id="desc">Geometryczny symbol łączący serce i myśl</desc>
  <path d="M32 54C20.4 45.6 8 35.4 8 22.5 8 14.8 13.6 10 20.2 10c5 0 9.1 2.7 11.8 7 2.7-4.3 6.8-7 11.8-7C50.4 10 56 14.8 56 22.5 56 35.4 43.6 45.6 32 54Z" fill="none" stroke="#b48b43" stroke-width="2.8" stroke-linejoin="round"/>
  <path d="M31.9 17v36.6M20.2 10l4.9 9.2-10.8 1.5 7.4 7.7-8.2 5.3 11.1 3.2-2.2 9.1M43.8 10l-5 9.2 10.8 1.5-7.4 7.7 8.2 5.3-11.1 3.2 2.2 9.1" fill="none" stroke="#17352c" stroke-width="2" stroke-linecap="round" stroke-linejoin="round"/>
  <path d="M25.1 19.2 32 24l6.8-4.8M21.7 28.4 32 24l10.2 4.4M24.6 36.9 32 32l7.3 4.9M22.4 46l9.6-6.4 9.5 6.4" fill="none" stroke="#17352c" stroke-width="1.7" stroke-linecap="round"/>
  <circle cx="32" cy="24" r="2.3" fill="#b48b43"/><circle cx="32" cy="32" r="2" fill="#b48b43"/><circle cx="32" cy="39.6" r="1.8" fill="#b48b43"/>
</svg>
